<svg version="1.2" xmlns="http://www.w3.org/2000/svg" viewBox="0 0 78 58" width="78" height="58"><style>.a{fill:#ffc400}</style><path class="a" d="m73.3 51.1c-3.4 1.5-7.4 0-8.9-3.4-0.5-1.1-0.7-2.3-0.6-3.4l-23.4-8.8c-0.8 1.7-2.3 3.2-4.2 4.1-3.5 1.6-7.5 0.7-10-1.9l-12.8 10.1q0.1 0.2 0.2 0.5c1.5 3.4 0 7.4-3.4 8.9-3.4 1.5-7.4 0-8.9-3.4-1.5-3.4 0-7.4 3.4-8.9 2.6-1.2 5.5-0.6 7.5 1.3l12.8-10.1q-0.2-0.4-0.4-0.9c-2-4.4 0-9.6 4.4-11.6q1.2-0.5 2.5-0.7l0.2-8.9c-2.1-0.4-4-1.7-5-3.9-1.5-3.4 0-7.4 3.4-8.9 3.4-1.5 7.4 0 8.9 3.4 1.5 3.4 0 7.4-3.4 8.9q-0.9 0.4-1.9 0.5l-0.2 8.9c3 0.4 5.7 2.2 7 5.1 0.9 1.8 1 3.8 0.6 5.6l23.2 8.7c0.6-1.5 1.8-2.8 3.5-3.5 3.4-1.6 7.3-0.1 8.9 3.3 1.5 3.4 0 7.4-3.4 9zm-38-13.3c-3.4 1.5-7.3 0-8.9-3.4-1.5-3.4 0-7.4 3.4-8.9 3.4-1.6 7.4-0.1 8.9 3.3 1.5 3.4 0 7.4-3.4 9z"/></svg>