<svg version="1.2" xmlns="http://www.w3.org/2000/svg" viewBox="0 0 44 23" width="44" height="23"><style>.a{fill:#fff}.b{fill:#00c7c0}</style><path fill-rule="evenodd" class="a" d="m17 2.8q0 0.4-0.4 1-0.4 0.6-1 1.2-0.6 0.6-1.4 1.2-0.7 0.6-1.4 1.1-0.6 0.3-1.2 0.6-0.5 0.3-1 0.6-0.5 0.3-0.9 0.5-0.4 0.3-0.7 0.6 0.7 0.1 1.3 0.2 0.6 0.1 0.9 0.3 0.3 0.2 0.5 0.5 0.3 0.4 0.5 0.7 0.2 0.4 0.3 0.7 0.1 0.3 0.1 0.3 0 0.5-0.2 1-0.2 0.5-0.6 1-0.4 0.4-1 0.9-0.5 0.5-1.2 0.8-0.7 0.4-1.4 0.7-0.7 0.2-1.5 0.3-0.3-0.3-0.6-0.6-0.3-0.3-0.6-0.6-0.3-0.2-0.4-0.4-0.2-0.2-0.2-0.3-0.4 0.6-0.8 1.1-0.4 0.4-0.7 0.7-0.4 0.4-0.8 0.5-0.3 0.2-0.7 0.2-0.2 0-0.3-0.1-0.2-0.1-0.3-0.3-0.2-0.2-0.3-0.4-0.2-0.2-0.3-0.3-0.1-0.2-0.1-0.4-0.1-0.1-0.1-0.2 0-1 0.5-2.3 0.4-1.4 1.2-2.8 0.8-1.4 1.8-2.8 1.1-1.4 2.3-2.6 0.4-1.5 0.7-2.9 0.3-1.4 0.3-2.5 0.6 0.3 1.1 0.7 0.4 0.3 0.6 0.6 0.3 0.3 0.4 0.6 0 0.2 0 0.5 0 0.1 0 0.1 0 0.1 0 0.2 1.4-1.1 2.9-1.7 1.4-0.6 2.7-0.6 0.1 0 0.3 0.2 0.2 0.1 0.5 0.3 0.2 0.2 0.4 0.4 0.2 0.3 0.4 0.5 0.2 0.3 0.3 0.5 0.1 0.3 0.1 0.5zm-15.1 12.9q0.1 0 0.3-0.3 0.2-0.2 0.4-0.6 0.3-0.4 0.5-1 0.3-0.6 0.7-1.3 0.3-0.7 0.6-1.5 0.3-0.8 0.7-1.7-0.6 0.8-1.2 1.5-0.5 0.8-0.9 1.6-0.4 0.8-0.7 1.5-0.3 0.8-0.5 1.5 0 0.1 0 0.2 0.1 0.1 0.1 0.1zm5.4-5.6q-0.5 1.4-1.1 2.7-0.6 1.3-1.3 2.3 1.1-0.1 2.1-0.3 1-0.3 1.8-0.7 0.8-0.4 1.4-0.9 0.7-0.6 1-1.4-0.2-0.1-0.4-0.2-0.2-0.1-0.5-0.2-0.3 0-0.5-0.1-0.3-0.1-0.6-0.1-0.6-0.1-1.2-0.2-0.1 0-0.3-0.3-0.2-0.3-0.4-0.6zm1.6-4.9q-0.2 0.7-0.4 1.4-0.2 0.7-0.4 1.4 0.9-0.8 1.9-1.4 1.1-0.7 2.1-1.4 1.1-0.7 2-1.4 0.9-0.8 1.6-1.8 0 0 0-0.1 0-0.1 0-0.2-0.1 0-0.1-0.1-0.1 0-0.2 0-0.6 0-1.3 0.3-0.7 0.2-1.6 0.7-0.8 0.5-1.7 1.2-1 0.6-1.9 1.4z"/><path class="a" d="m15.6 14.8q0 0.3 0.2 0.3 0.3 0 0.7-0.3 0.4-0.4 0.8-1-0.1-0.1-0.1-0.2 0-0.1 0-0.1 0-0.2 0.1-0.5 0-0.3 0.2-0.7 0.1-0.2 0.3-0.5 0.2-0.2 0.4-0.5 0.2-0.3 0.4-0.5l0.1-0.1q0.1 0.2 0.2 0.4 0.2 0.2 0.4 0.4 0.1 0.2 0.3 0.4 0.1 0.2 0.1 0.2 0 0.5-0.1 0.9-0.2 0.5-0.5 0.9 0.7-0.1 1.2-0.3 0.5-0.3 1.1-0.9 0.1 0.1 0.2 0.2 0.2 0.2 0.2 0.3-0.4 0.5-0.8 0.8-0.4 0.3-0.8 0.4-0.4 0.2-0.9 0.3-0.4 0-0.8 0-0.4 0.4-0.8 0.7-0.4 0.3-0.8 0.5-0.4 0.3-0.8 0.4-0.4 0.1-0.8 0.1-0.3 0-0.6-0.2-0.3-0.1-0.6-0.4-0.3-0.3-0.4-0.6-0.2-0.3-0.2-0.5 0-0.8 0.2-1.6 0.2-0.7 0.7-1.4 0.4-0.7 1.1-1.2 0.7-0.5 1.6-0.7 0-0.1 0.1-0.1 0.1 0 0.2 0 0.1 0 0.3 0.1 0.1 0.1 0.2 0.3 0.2 0.1 0.3 0.2 0.1 0.1 0.1 0.2-0.1 0-0.2 0.1-0.1 0.1-0.3 0.3-0.3 0.2-0.6 0.5-0.3 0.3-0.6 0.9-0.6 0.8-0.8 1.5-0.2 0.7-0.2 1z"/><path class="a" d="m24.1 10.9q-0.1 0.4-0.2 0.7-0.2 0.3-0.3 0.7 0.7-0.7 1.1-1.2 0.5-0.5 0.8-0.7 0.3-0.3 0.5-0.4 0.2-0.1 0.3-0.1 0.2 0 0.4 0.1 0.3 0.2 0.6 0.4 0.2 0.2 0.4 0.4 0.2 0.2 0.2 0.3 0 0.1 0 0.1 0 0 0 0.1-0.1 0.3-0.2 0.6-0.1 0.4-0.3 0.7-0.1 0.4-0.3 0.8-0.1 0.4-0.2 0.7-0.1 0.3-0.2 0.5-0.1 0.3-0.1 0.4 0 0.1 0.1 0.1 0.1 0 0.3-0.2 0.2-0.1 0.5-0.3 0.3-0.2 0.6-0.5 0.3-0.2 0.6-0.5 0.3-0.2 0.6-0.4 0.2-0.2 0.3-0.3 0.1 0 0.2 0.2 0.2 0.1 0.3 0.3-0.2 0.2-0.6 0.5-0.3 0.3-0.7 0.7-0.4 0.3-0.8 0.6-0.4 0.4-0.8 0.6-0.4 0.3-0.8 0.5-0.3 0.1-0.6 0.1-0.1 0-0.4-0.1-0.2-0.1-0.4-0.3-0.2-0.1-0.4-0.3-0.1-0.2-0.1-0.4 0.1-0.4 0.2-0.9 0.2-0.6 0.4-1.1 0.1-0.6 0.3-1.1 0.2-0.6 0.4-1-0.2 0.2-0.6 0.6-0.3 0.4-0.8 1-0.4 0.6-0.9 1.4-0.5 0.9-1 2-0.1 0.2-0.1 0.2-0.1 0.1-0.2 0.1-0.2 0-0.4-0.1-0.2-0.1-0.5-0.2-0.2-0.2-0.4-0.4-0.3-0.2-0.4-0.4 0 0 0-0.3 0.1-0.3 0.2-0.7 0.1-0.5 0.2-1 0.2-0.6 0.4-1.2 0.2-0.6 0.4-1.2 0.2-0.7 0.5-1.2 0.4 0.2 0.9 0.5 0.6 0.2 1 0.6z"/><path fill-rule="evenodd" class="a" d="m35.7 14.7q0 0.3 0.1 0.3 0.2 0 0.5-0.1 0.3-0.2 0.6-0.4 0.3-0.2 0.6-0.4 0.3-0.2 0.5-0.5 0.3-0.2 0.5-0.4 0.2-0.2 0.4-0.3 0.1 0 0.2 0.2 0.1 0.1 0.3 0.3-0.3 0.2-0.6 0.5-0.4 0.4-0.8 0.7-0.3 0.4-0.8 0.7-0.4 0.3-0.8 0.5-0.4 0.3-0.8 0.4-0.3 0.2-0.7 0.2-0.2 0-0.4-0.2-0.3-0.1-0.6-0.4-0.2-0.2-0.4-0.5-0.1-0.3-0.1-0.5 0-0.4 0-1-0.4 0.5-0.9 0.8-0.4 0.4-0.8 0.7-0.4 0.3-0.9 0.6-0.5 0.3-1 0.5-0.1 0-0.2 0-0.1 0-0.3-0.1-0.2-0.1-0.3-0.2-0.2-0.2-0.3-0.4-0.1-0.2-0.1-0.4 0-0.4 0.2-0.9 0.1-0.5 0.4-1.1 0.3-0.5 0.8-1.1 0.4-0.5 0.9-1 0.6-0.5 1.3-0.9 0.6-0.4 1.4-0.6 0.1 0 0.3 0.1 0.3 0.1 0.5 0.3 0.3-1.1 0.8-2.1 0.5-1.1 1-2.1 0.5-0.9 1.1-1.8 0.6-0.8 1.2-1.5 0.6-0.6 1.1-1.1 0.6-0.4 1.1-0.5 0.2 0 0.5 0.2 0.2 0.1 0.4 0.4 0.3 0.2 0.4 0.4 0.2 0.2 0.2 0.4 0 0.4-0.2 1-0.3 0.7-0.7 1.4-0.4 0.7-0.9 1.5-0.6 0.8-1.3 1.6-0.6 0.8-1.3 1.6-0.7 0.8-1.5 1.5-0.3 1.1-0.4 2-0.2 1-0.2 1.7zm-4.6-0.3q0.4 0 1-0.5 0.7-0.5 1.5-1.3 0.1-0.4 0.2-0.9 0.2-0.5 0.3-1-0.5 0.4-1.1 0.9-0.6 0.5-1 1-0.5 0.5-0.7 1-0.3 0.4-0.3 0.6 0 0.2 0.1 0.2zm9.7-12.1q-0.2 0-0.4 0.2-0.3 0.3-0.6 0.7-0.3 0.5-0.7 1.1-0.3 0.6-0.7 1.4-0.3 0.7-0.7 1.5-0.3 0.8-0.6 1.7 0.7-0.9 1.4-1.9 0.7-0.9 1.2-1.8 0.5-0.8 0.8-1.5 0.3-0.7 0.3-1.2 0 0 0-0.1 0-0.1 0-0.1z"/><path class="a" d="m39.5 16.4q-0.1 0-0.4-0.1-0.2-0.1-0.4-0.3-0.2-0.1-0.4-0.3-0.1-0.2-0.1-0.4 0.1-0.4 0.2-1 0.2-0.6 0.4-1.2 0.2-0.6 0.4-1.2 0.3-0.5 0.4-1 0.2-0.4 0.3-0.7 0.2-0.3 0.2-0.3 0.1 0 0.3 0.1 0.3 0.2 0.5 0.4 0.3 0.2 0.5 0.4 0.2 0.2 0.2 0.3 0 0.1 0 0.1 0 0 0 0.1-0.1 0.3-0.2 0.6-0.1 0.4-0.3 0.7-0.1 0.4-0.3 0.8-0.1 0.4-0.2 0.7-0.1 0.3-0.2 0.5-0.1 0.3-0.1 0.4 0 0.1 0.1 0.1 0.1 0 0.3-0.2 0.2-0.1 0.5-0.3 0.3-0.2 0.6-0.5 0.3-0.2 0.6-0.5 0.3-0.2 0.6-0.4 0.2-0.2 0.3-0.3 0.1 0 0.2 0.2 0.2 0.1 0.3 0.3-0.3 0.2-0.6 0.5-0.3 0.3-0.7 0.7-0.4 0.3-0.8 0.6-0.4 0.4-0.8 0.6-0.4 0.3-0.8 0.5-0.3 0.1-0.6 0.1zm4-9.6q0 0.1 0 0.2-0.1 0.2-0.2 0.4-0.1 0.2-0.2 0.4-0.1 0.2-0.2 0.4-0.1 0.2-0.2 0.4-0.1 0.1-0.2 0.1-0.2 0-0.4-0.1-0.3-0.1-0.5-0.3-0.3-0.1-0.4-0.2-0.2-0.1-0.2-0.2 0-0.2 0.1-0.5 0.1-0.4 0.3-0.7 0.2-0.3 0.3-0.5 0.2-0.3 0.3-0.3 0.2 0 0.4 0.1 0.3 0.2 0.5 0.3 0.3 0.2 0.5 0.3 0.1 0.2 0.1 0.2z"/><path class="b" d="m7.3 19.7h-1v2.6h-0.5v-2.6h-1v-0.5h2.5z"/><path class="b" d="m15.4 22.3h-0.5v-1.4h-1.4v1.4h-0.5v-3.1h0.5v1.3h1.4v-1.3h0.5z"/><path class="b" d="m23.2 20.9h-1.2v1h1.4v0.4h-2v-3.1h2v0.5h-1.4v0.8h1.2z"/><path class="b" d="m30.4 19.2l0.9 2.4 0.9-2.4h0.6v3.1h-0.5v-1l0.1-1.4-0.9 2.4h-0.4l-0.9-2.4v1.4 1h-0.5v-3.1z"/><path class="b" d="m39.8 20.9h-1.3v1h1.5v0.4h-2v-3.1h2v0.5h-1.5v0.8h1.3z"/></svg>